<svg id="logo" data-name="logo" xmlns="http://www.w3.org/2000/svg" viewBox="0 0 305.48 264.88"><defs><style>.cls-1{fill:none;}.cls-2{fill:#1990ff;}</style></defs><title>数据仓</title><path class="cls-1" d="M165.18,151V282.86L244.31,151.3h32.43L197.57,282.93l71.54,104.93h61l1.91-117.33-1-52.46,24.8,42h1v1l34.34,59.14H356.86L355,414.57h-1v1H251.94L165.18,283V415.88H470.66V151Zm226,264.52H358.77l79.17-132.59L366.4,178h-61l-1.91,118.28,1,51.51-24.8-41h-1v-1.91l-34.34-58.19h34.34l1.91-95.39h103l86.8,131.64Z" transform="translate(-165.18 -151)"/><polygon class="cls-2" points="188.82 264.52 188.82 263.57 189.78 263.57 191.68 169.13 226.02 169.13 165.93 67.07 164.98 236.86 103.93 236.86 32.39 131.93 111.56 0.3 79.13 0.3 0 131.86 0 132 86.76 264.52 188.82 264.52"/><polygon class="cls-2" points="115.38 0.3 113.47 95.69 79.13 95.69 139.22 196.8 140.18 27.01 201.22 27.01 272.76 131.93 193.59 264.52 226.02 264.52 305.2 131.93 218.39 0.3 115.38 0.3"/></svg>